<?xml version="1.0" encoding="UTF-8"?>
<svg xmlns="http://www.w3.org/2000/svg" xmlns:xlink="http://www.w3.org/1999/xlink" width="64px" height="64px" viewBox="0 0 64 64" version="1.1">
<g id="surface1">
<path style="fill:none;stroke-width:26;stroke-linecap:butt;stroke-linejoin:miter;stroke:rgb(0%,0%,100%);stroke-opacity:1;stroke-miterlimit:4;" d="M 209.000244 14.996338 C 101.513672 15.560303 14.714355 103.000488 14.996338 210.487061 C 15.27832 317.999268 102.487793 405.003662 210 405.003662 C 317.512207 405.003662 404.72168 317.999268 405.003662 210.487061 C 405.285645 103.000488 318.486328 15.560303 210.999756 14.996338 Z M 209.000244 14.996338 " transform="matrix(0.152381,0,0,0.152381,0,0)"/>
<path style="fill:none;stroke-width:18;stroke-linecap:butt;stroke-linejoin:miter;stroke:rgb(0%,0%,100%);stroke-opacity:1;stroke-miterlimit:4;" d="M 210 14.996338 L 210 405.003662 M 405.003662 210 L 14.996338 210 M 59.01123 90.003662 C 149.348145 154.449463 270.651855 154.449463 360.98877 90.003662 M 360.98877 329.996338 C 270.651855 265.550537 149.348145 265.550537 59.01123 329.996338 M 195.003662 19.995117 C 138.760986 67.496338 106.307373 137.376709 106.307373 210.999756 C 106.307373 284.622803 138.760986 354.503174 195.003662 402.004395 M 224.996338 402.004395 C 281.239014 354.503174 313.692627 284.622803 313.692627 210.999756 C 313.692627 137.376709 281.239014 67.496338 224.996338 19.995117 " transform="matrix(0.152381,0,0,0.152381,0,0)"/>
</g>
</svg>
