<?xml version='1.0' encoding='iso-8859-1'?>
<svg version="1.1" xmlns="http://www.w3.org/2000/svg" viewBox="0 0 470 470" xmlns:xlink="http://www.w3.org/1999/xlink" enable-background="new 0 0 470 470">
  <g>
    <path d="m16.642,363.515c0.914,4.039 4.926,6.581 8.971,5.658 4.039-0.914 6.573-4.931 5.659-8.971l-14.384-63.541h436.225l-14.384,63.542c-0.914,4.04 1.62,8.057 5.659,8.971 0.558,0.127 1.114,0.188 1.663,0.188 3.427,0 6.52-2.363 7.308-5.846l16.456-72.698c0.504-2.225-0.031-4.557-1.455-6.338-1.423-1.781-3.579-2.818-5.859-2.818h-63.972v-214.162c0-3.104-1.911-5.887-4.808-7l-156.027-60c-1.734-0.666-3.65-0.666-5.385,0l-156.027,60c-2.896,1.113-4.808,3.896-4.808,7v214.162h-63.974c-2.28,0-4.437,1.037-5.859,2.818-1.424,1.781-1.959,4.113-1.455,6.338l16.456,72.697zm264.609-81.853h-92.5v-138.162h92.5v138.162zm-194.777-209.011l148.527-57.116 148.527,57.116v209.011h-87.277v-145.662c0-4.143-3.357-7.5-7.5-7.5h-107.5c-4.143,0-7.5,3.357-7.5,7.5v145.661h-87.277v-209.01z"/>
    <path d="m7.5,410c14.17,0 27.804-5.631 37.928-15.386 10.123,9.756 23.745,15.386 37.894,15.386 14.187,0 27.829-5.627 37.956-15.379 10.101,9.752 23.724,15.379 37.902,15.379 14.375,0 27.786-5.511 37.932-15.366 10.1,9.743 23.718,15.366 37.89,15.366 14.16,0 27.784-5.623 37.906-15.366 10.123,9.856 23.529,15.366 37.916,15.366 14.17,0 27.803-5.63 37.927-15.386 10.124,9.757 23.758,15.386 37.928,15.386 14.178,0 27.801-5.627 37.902-15.378 10.124,9.752 23.753,15.378 37.919,15.378 4.143,0 7.5-3.357 7.5-7.5s-3.357-7.5-7.5-7.5c-12.674,0-24.3-5.896-31.896-16.174-1.414-1.914-3.651-3.043-6.031-3.043-2.389,0.002-4.628,1.136-6.04,3.054-7.45,10.121-19.358,16.163-31.854,16.163-12.488,0-24.412-6.046-31.896-16.174-1.414-1.914-3.652-3.043-6.032-3.043s-4.618,1.129-6.032,3.043c-7.483,10.129-19.406,16.174-31.895,16.174-12.651,0-24.265-5.896-31.863-16.175-1.414-1.913-3.652-3.042-6.031-3.042-2.38,0-4.617,1.129-6.031,3.043-7.486,10.128-19.409,16.174-31.897,16.174-12.497,0-24.405-6.042-31.854-16.163-1.41-1.916-3.646-3.049-6.025-3.054-2.389,0-4.622,1.124-6.037,3.03-7.635,10.288-19.263,16.187-31.906,16.187-12.496,0-24.404-6.042-31.854-16.163-1.412-1.918-3.651-3.052-6.033-3.054-2.386,0-4.625,1.129-6.039,3.043-7.483,10.129-19.421,16.174-31.932,16.174-12.464,0-24.375-6.047-31.862-16.175-1.415-1.914-3.652-3.042-6.032-3.042-2.379,0-4.617,1.13-6.031,3.043-7.596,10.279-19.222,16.174-31.897,16.174-4.143,0-7.5,3.357-7.5,7.5s3.358,7.5 7.5,7.5z"/>
    <path d="m462.5,455c-12.674,0-24.3-5.896-31.896-16.174-1.414-1.914-3.651-3.043-6.031-3.043-2.389,0.002-4.628,1.136-6.04,3.054-7.45,10.121-19.358,16.163-31.854,16.163-12.488,0-24.412-6.046-31.896-16.174-1.414-1.914-3.652-3.043-6.032-3.043s-4.618,1.129-6.032,3.043c-7.483,10.129-19.406,16.174-31.895,16.174-12.651,0-24.265-5.896-31.863-16.175-1.414-1.913-3.652-3.042-6.031-3.042-2.38,0-4.617,1.129-6.031,3.043-7.486,10.128-19.409,16.174-31.897,16.174-12.497,0-24.405-6.042-31.854-16.163-1.41-1.916-3.646-3.049-6.025-3.054-2.389,0-4.622,1.124-6.037,3.03-7.635,10.288-19.263,16.187-31.906,16.187-12.496,0-24.404-6.042-31.854-16.163-1.412-1.918-3.651-3.052-6.033-3.054-2.386,0-4.625,1.129-6.039,3.043-7.483,10.129-19.421,16.174-31.932,16.174-12.464,0-24.375-6.047-31.862-16.175-1.415-1.914-3.652-3.042-6.032-3.042-2.379,0-4.617,1.13-6.031,3.043-7.596,10.279-19.222,16.174-31.897,16.174-4.143,0-7.5,3.357-7.5,7.5s3.357,7.5 7.5,7.5c14.17,0 27.804-5.631 37.928-15.386 10.123,9.756 23.745,15.386 37.894,15.386 14.187,0 27.829-5.627 37.956-15.379 10.101,9.752 23.724,15.379 37.902,15.379 14.375,0 27.786-5.511 37.932-15.366 10.1,9.743 23.718,15.366 37.89,15.366 14.16,0 27.784-5.623 37.906-15.366 10.123,9.856 23.529,15.366 37.916,15.366 14.17,0 27.803-5.63 37.927-15.386 10.124,9.757 23.758,15.386 37.928,15.386 14.178,0 27.801-5.627 37.902-15.378 10.124,9.752 23.753,15.378 37.919,15.378 4.143,0 7.5-3.357 7.5-7.5s-3.357-7.5-7.5-7.5z"/>
    <path d="m318.751,215.777h42.277c4.143,0 7.5-3.357 7.5-7.5s-3.357-7.5-7.5-7.5h-34.777v-57.277h34.777c4.143,0 7.5-3.357 7.5-7.5s-3.357-7.5-7.5-7.5h-42.277c-4.143,0-7.5,3.357-7.5,7.5v72.276c0,4.143 3.358,7.501 7.5,7.501z"/>
    <path d="m151.25,128.5h-42.276c-4.143,0-7.5,3.357-7.5,7.5s3.357,7.5 7.5,7.5h34.776v57.276h-34.776c-4.143,0-7.5,3.357-7.5,7.5s3.357,7.5 7.5,7.5h42.276c4.143,0 7.5-3.357 7.5-7.5v-72.276c0-4.142-3.357-7.5-7.5-7.5z"/>
  </g>
</svg>
